<svg width="236" height="26" viewBox="0 0 236 26" fill="none" xmlns="http://www.w3.org/2000/svg">
<path d="M4 11.7623V15.6793L11 19.4201L18 15.6793V11.7623L11 15.503L4 11.7623ZM11 1.7934L0 7.66896L11 13.5445L20 8.73635V15.503H22V7.66896L11 1.7934Z" fill="#7000FF"/>
<path d="M224.531 6.36401L228.803 16.732L232.763 6.36401H235.187L227.363 25.78H224.891L227.627 19.324L222.083 6.36401H224.531Z" fill="#7000FF"/>
<path d="M215.116 6.14801C216.652 6.14801 217.884 6.64401 218.812 7.63601C219.756 8.61201 220.228 10.028 220.228 11.884V19.54H218.044V12.076C218.044 10.78 217.724 9.78801 217.084 9.10001C216.46 8.41201 215.596 8.06801 214.492 8.06801C213.34 8.06801 212.412 8.45201 211.708 9.22001C211.02 9.97201 210.676 11.084 210.676 12.556V19.54H208.492V12.076C208.492 10.78 208.172 9.78801 207.532 9.10001C206.892 8.41201 206.028 8.06801 204.94 8.06801C203.772 8.06801 202.836 8.45201 202.132 9.22001C201.444 9.97201 201.1 11.084 201.1 12.556V19.54H198.916V6.36401H201.1V9.36401C201.42 8.32401 201.988 7.53201 202.804 6.98801C203.636 6.42801 204.588 6.14801 205.66 6.14801C206.78 6.14801 207.748 6.43601 208.564 7.01201C209.396 7.57201 209.988 8.40401 210.34 9.50801C210.708 8.43601 211.324 7.61201 212.188 7.03601C213.052 6.44401 214.028 6.14801 215.116 6.14801Z" fill="#7000FF"/>
<path d="M196.059 12.22C196.059 12.684 196.028 13.084 195.964 13.42H185.428C185.476 14.924 185.899 16.052 186.699 16.804C187.515 17.556 188.508 17.932 189.676 17.932C190.732 17.932 191.612 17.668 192.316 17.14C193.036 16.596 193.475 15.876 193.635 14.98H195.964C195.804 15.892 195.443 16.708 194.883 17.428C194.339 18.148 193.627 18.708 192.747 19.108C191.867 19.508 190.875 19.708 189.771 19.708C188.507 19.708 187.387 19.436 186.411 18.892C185.435 18.348 184.667 17.572 184.107 16.564C183.563 15.54 183.292 14.34 183.292 12.964C183.292 11.588 183.563 10.388 184.107 9.36399C184.667 8.33998 185.435 7.55599 186.411 7.01199C187.387 6.46799 188.507 6.19598 189.771 6.19598C191.051 6.19598 192.163 6.46799 193.107 7.01199C194.067 7.55599 194.796 8.28398 195.292 9.19598C195.804 10.108 196.059 11.116 196.059 12.22ZM193.852 12.364C193.9 11.388 193.74 10.572 193.372 9.91599C193.004 9.25998 192.499 8.77199 191.859 8.45199C191.219 8.13199 190.523 7.97198 189.771 7.97198C188.571 7.97198 187.563 8.34799 186.747 9.09999C185.931 9.83599 185.492 10.924 185.428 12.364H193.852Z" fill="#7000FF"/>
<path d="M173.168 6.196C174.448 6.196 175.528 6.516 176.408 7.156C177.304 7.796 177.928 8.652 178.28 9.724V1.78H180.464V19.54H178.28V16.18C177.928 17.252 177.304 18.108 176.408 18.748C175.528 19.388 174.448 19.708 173.168 19.708C172 19.708 170.96 19.436 170.048 18.892C169.136 18.348 168.416 17.572 167.888 16.564C167.376 15.54 167.12 14.34 167.12 12.964C167.12 11.588 167.376 10.388 167.888 9.364C168.416 8.34 169.136 7.556 170.048 7.012C170.96 6.468 172 6.196 173.168 6.196ZM173.792 8.14C172.448 8.14 171.368 8.572 170.552 9.436C169.752 10.284 169.352 11.46 169.352 12.964C169.352 14.468 169.752 15.652 170.552 16.516C171.368 17.364 172.448 17.788 173.792 17.788C174.656 17.788 175.424 17.588 176.096 17.188C176.784 16.788 177.32 16.228 177.704 15.508C178.088 14.772 178.28 13.924 178.28 12.964C178.28 12.004 178.088 11.156 177.704 10.42C177.32 9.684 176.784 9.124 176.096 8.74C175.424 8.34 174.656 8.14 173.792 8.14Z" fill="#7000FF"/>
<path d="M156.996 6.19598C158.276 6.19598 159.356 6.51598 160.236 7.15598C161.132 7.79599 161.756 8.65199 162.108 9.72399V6.36399H164.292V19.54H162.108V16.18C161.756 17.252 161.132 18.108 160.236 18.748C159.356 19.388 158.276 19.708 156.996 19.708C155.828 19.708 154.788 19.436 153.876 18.892C152.964 18.348 152.244 17.572 151.716 16.564C151.204 15.54 150.948 14.34 150.948 12.964C150.948 11.588 151.204 10.388 151.716 9.36399C152.244 8.33998 152.964 7.55599 153.876 7.01199C154.788 6.46799 155.828 6.19598 156.996 6.19598ZM157.62 8.13999C156.276 8.13999 155.196 8.57198 154.38 9.43598C153.58 10.284 153.18 11.46 153.18 12.964C153.18 14.468 153.58 15.652 154.38 16.516C155.196 17.364 156.276 17.788 157.62 17.788C158.484 17.788 159.252 17.588 159.924 17.188C160.612 16.788 161.148 16.228 161.532 15.508C161.916 14.772 162.108 13.924 162.108 12.964C162.108 12.004 161.916 11.156 161.532 10.42C161.148 9.68398 160.612 9.12399 159.924 8.73999C159.252 8.33999 158.484 8.13999 157.62 8.13999Z" fill="#7000FF"/>
<path d="M142.521 6.19598C144.201 6.19598 145.594 6.64398 146.698 7.53999C147.802 8.43599 148.482 9.63598 148.738 11.14H146.434C146.274 10.196 145.834 9.45999 145.114 8.93198C144.41 8.38799 143.53 8.11599 142.474 8.11599C141.706 8.11599 141.002 8.29199 140.362 8.64398C139.738 8.99599 139.234 9.53999 138.85 10.276C138.466 10.996 138.273 11.892 138.273 12.964C138.273 14.036 138.466 14.94 138.85 15.676C139.234 16.396 139.738 16.932 140.362 17.284C141.002 17.636 141.706 17.812 142.474 17.812C143.53 17.812 144.41 17.54 145.114 16.996C145.834 16.452 146.274 15.708 146.434 14.764H148.738C148.482 16.284 147.802 17.492 146.698 18.388C145.594 19.268 144.201 19.708 142.521 19.708C141.257 19.708 140.137 19.436 139.161 18.892C138.185 18.348 137.417 17.572 136.857 16.564C136.313 15.54 136.042 14.34 136.042 12.964C136.042 11.588 136.313 10.388 136.857 9.36399C137.417 8.33998 138.185 7.55599 139.161 7.01199C140.137 6.46799 141.257 6.19598 142.521 6.19598Z" fill="#7000FF"/>
<path d="M130.711 15.628H123.271L121.855 19.54H119.503L125.767 2.93201H128.239L134.479 19.54H132.127L130.711 15.628ZM130.087 13.924L126.991 5.38001L123.895 13.924H130.087Z" fill="#7000FF"/>
<path d="M113.519 12.484C113.519 12.82 113.479 13.188 113.399 13.588H104.111C104.159 14.596 104.415 15.324 104.879 15.772C105.343 16.204 105.935 16.42 106.655 16.42C107.263 16.42 107.767 16.268 108.167 15.964C108.567 15.66 108.831 15.268 108.959 14.788H113.303C113.127 15.732 112.743 16.58 112.151 17.332C111.559 18.068 110.807 18.652 109.895 19.084C108.983 19.5 107.967 19.708 106.847 19.708C105.535 19.708 104.367 19.436 103.343 18.892C102.335 18.332 101.543 17.532 100.967 16.492C100.391 15.452 100.103 14.236 100.103 12.844C100.103 11.436 100.383 10.22 100.943 9.19601C101.519 8.15601 102.319 7.36401 103.343 6.82001C104.367 6.26001 105.535 5.98001 106.847 5.98001C108.175 5.98001 109.343 6.25201 110.351 6.79601C111.359 7.34001 112.135 8.10801 112.679 9.10001C113.239 10.076 113.519 11.204 113.519 12.484ZM109.367 11.86C109.383 10.98 109.143 10.324 108.647 9.89201C108.167 9.44401 107.567 9.22001 106.847 9.22001C106.095 9.22001 105.471 9.44401 104.975 9.89201C104.479 10.34 104.199 10.996 104.135 11.86H109.367Z" fill="#7000FF"/>
<path d="M97.9653 1.78V19.54H93.8613V1.78H97.9653Z" fill="#7000FF"/>
<path d="M86.5398 2.38C86.5398 1.756 86.7638 1.244 87.2118 0.844002C87.6598 0.428001 88.2518 0.220001 88.9878 0.220001C89.7238 0.220001 90.3158 0.428001 90.7638 0.844002C91.2118 1.244 91.4358 1.756 91.4358 2.38C91.4358 2.988 91.2118 3.5 90.7638 3.916C90.3158 4.316 89.7238 4.516 88.9878 4.516C88.2518 4.516 87.6598 4.316 87.2118 3.916C86.7638 3.5 86.5398 2.988 86.5398 2.38ZM91.0278 6.148V19.54H86.9238V6.148H91.0278Z" fill="#7000FF"/>
<path d="M79.0102 5.98C80.1142 5.98 81.0982 6.26 81.9622 6.82C82.8422 7.364 83.5302 8.156 84.0262 9.196C84.5382 10.22 84.7942 11.436 84.7942 12.844C84.7942 14.236 84.5382 15.452 84.0262 16.492C83.5302 17.532 82.8422 18.332 81.9622 18.892C81.0982 19.436 80.1142 19.708 79.0102 19.708C77.9862 19.708 77.1062 19.476 76.3702 19.012C75.6342 18.548 75.0982 17.916 74.7622 17.116V19.54H70.6582V1.78H74.7622V8.572C75.0982 7.772 75.6342 7.14 76.3702 6.676C77.1062 6.212 77.9862 5.98 79.0102 5.98ZM77.6902 9.58C76.8262 9.58 76.1142 9.876 75.5542 10.468C75.0102 11.044 74.7382 11.836 74.7382 12.844C74.7382 13.836 75.0102 14.628 75.5542 15.22C76.1142 15.812 76.8262 16.108 77.6902 16.108C78.5702 16.108 79.2742 15.82 79.8022 15.244C80.3462 14.668 80.6182 13.868 80.6182 12.844C80.6182 11.82 80.3462 11.02 79.8022 10.444C79.2742 9.868 78.5702 9.58 77.6902 9.58Z" fill="#7000FF"/>
<path d="M61.5941 5.98001C62.9221 5.98001 64.1061 6.26001 65.1461 6.82001C66.2021 7.36401 67.0261 8.15601 67.6181 9.19601C68.2261 10.236 68.5301 11.452 68.5301 12.844C68.5301 14.236 68.2261 15.452 67.6181 16.492C67.0261 17.532 66.2021 18.332 65.1461 18.892C64.1061 19.436 62.9221 19.708 61.5941 19.708C60.2661 19.708 59.0741 19.436 58.0181 18.892C56.9621 18.332 56.1301 17.532 55.5221 16.492C54.9301 15.452 54.6341 14.236 54.6341 12.844C54.6341 11.452 54.9301 10.236 55.5221 9.19601C56.1301 8.15601 56.9621 7.36401 58.0181 6.82001C59.0741 6.26001 60.2661 5.98001 61.5941 5.98001ZM61.5941 9.53201C60.8101 9.53201 60.1461 9.82001 59.6021 10.396C59.0741 10.956 58.8101 11.772 58.8101 12.844C58.8101 13.916 59.0741 14.732 59.6021 15.292C60.1461 15.852 60.8101 16.132 61.5941 16.132C62.3781 16.132 63.0341 15.852 63.5621 15.292C64.0901 14.732 64.3541 13.916 64.3541 12.844C64.3541 11.772 64.0901 10.956 63.5621 10.396C63.0341 9.82001 62.3781 9.53201 61.5941 9.53201Z" fill="#7000FF"/>
<path d="M52.496 2.69202V19.54H48.392V9.00402L44.744 19.54H41.192L37.52 8.98002V19.54H33.416V2.69202H38.432L43.016 14.428L47.504 2.69202H52.496Z" fill="#7000FF"/>
</svg>
