<svg width="236" height="26" viewBox="0 0 236 26" fill="none" xmlns="http://www.w3.org/2000/svg">
<path d="M4 12.5001V16.5001L11 20.3201L18 16.5001V12.5001L11 16.3201L4 12.5001ZM11 2.32007L0 8.32007L11 14.3201L20 9.41007V16.3201H22V8.32007L11 2.32007Z" fill="white"/>
<path d="M224.531 6.14404L228.803 16.512L232.763 6.14404H235.187L227.363 25.56H224.891L227.627 19.104L222.083 6.14404H224.531Z" fill="white"/>
<path d="M215.116 5.92798C216.652 5.92798 217.884 6.42398 218.812 7.41598C219.756 8.39198 220.228 9.80798 220.228 11.664V19.32H218.044V11.856C218.044 10.56 217.724 9.56798 217.084 8.87998C216.46 8.19198 215.596 7.84798 214.492 7.84798C213.34 7.84798 212.412 8.23198 211.708 8.99998C211.02 9.75198 210.676 10.864 210.676 12.336V19.32H208.492V11.856C208.492 10.56 208.172 9.56798 207.532 8.87998C206.892 8.19198 206.028 7.84798 204.94 7.84798C203.772 7.84798 202.836 8.23198 202.132 8.99998C201.444 9.75198 201.1 10.864 201.1 12.336V19.32H198.916V6.14398H201.1V9.14398C201.42 8.10398 201.988 7.31198 202.804 6.76798C203.636 6.20798 204.588 5.92798 205.66 5.92798C206.78 5.92798 207.748 6.21598 208.564 6.79198C209.396 7.35198 209.988 8.18398 210.34 9.28798C210.708 8.21598 211.324 7.39198 212.188 6.81598C213.052 6.22398 214.028 5.92798 215.116 5.92798Z" fill="white"/>
<path d="M196.059 12.0001C196.059 12.4641 196.028 12.8641 195.964 13.2001H185.428C185.476 14.7041 185.899 15.8321 186.699 16.5841C187.515 17.3361 188.508 17.7121 189.676 17.7121C190.732 17.7121 191.612 17.4481 192.316 16.9201C193.036 16.3761 193.475 15.6561 193.635 14.7601H195.964C195.804 15.6721 195.443 16.4881 194.883 17.2081C194.339 17.9281 193.627 18.4881 192.747 18.8881C191.867 19.2881 190.875 19.4881 189.771 19.4881C188.507 19.4881 187.387 19.2161 186.411 18.6721C185.435 18.1281 184.667 17.3521 184.107 16.3441C183.563 15.3201 183.292 14.1201 183.292 12.7441C183.292 11.3681 183.563 10.1681 184.107 9.14408C184.667 8.12008 185.435 7.33608 186.411 6.79208C187.387 6.24808 188.507 5.97607 189.771 5.97607C191.051 5.97607 192.163 6.24808 193.107 6.79208C194.067 7.33608 194.796 8.06407 195.292 8.97608C195.804 9.88808 196.059 10.8961 196.059 12.0001ZM193.852 12.1441C193.9 11.1681 193.74 10.3521 193.372 9.69608C193.004 9.04008 192.499 8.55208 191.859 8.23208C191.219 7.91208 190.523 7.75208 189.771 7.75208C188.571 7.75208 187.563 8.12808 186.747 8.88008C185.931 9.61608 185.492 10.7041 185.428 12.1441H193.852Z" fill="white"/>
<path d="M173.168 5.97606C174.448 5.97606 175.528 6.29606 176.408 6.93606C177.304 7.57606 177.928 8.43206 178.28 9.50406V1.56006H180.464V19.3201H178.28V15.9601C177.928 17.0321 177.304 17.8881 176.408 18.5281C175.528 19.1681 174.448 19.4881 173.168 19.4881C172 19.4881 170.96 19.2161 170.048 18.6721C169.136 18.1281 168.416 17.3521 167.888 16.3441C167.376 15.3201 167.12 14.1201 167.12 12.7441C167.12 11.3681 167.376 10.1681 167.888 9.14406C168.416 8.12006 169.136 7.33606 170.048 6.79206C170.96 6.24806 172 5.97606 173.168 5.97606ZM173.792 7.92006C172.448 7.92006 171.368 8.35206 170.552 9.21606C169.752 10.0641 169.352 11.2401 169.352 12.7441C169.352 14.2481 169.752 15.4321 170.552 16.2961C171.368 17.1441 172.448 17.5681 173.792 17.5681C174.656 17.5681 175.424 17.3681 176.096 16.9681C176.784 16.5681 177.32 16.0081 177.704 15.2881C178.088 14.5521 178.28 13.7041 178.28 12.7441C178.28 11.7841 178.088 10.9361 177.704 10.2001C177.32 9.46406 176.784 8.90406 176.096 8.52006C175.424 8.12006 174.656 7.92006 173.792 7.92006Z" fill="white"/>
<path d="M156.996 5.97607C158.276 5.97607 159.356 6.29607 160.236 6.93608C161.132 7.57608 161.756 8.43208 162.108 9.50408V6.14408H164.292V19.3201H162.108V15.9601C161.756 17.0321 161.132 17.8881 160.236 18.5281C159.356 19.1681 158.276 19.4881 156.996 19.4881C155.828 19.4881 154.788 19.2161 153.876 18.6721C152.964 18.1281 152.244 17.3521 151.716 16.3441C151.204 15.3201 150.948 14.1201 150.948 12.7441C150.948 11.3681 151.204 10.1681 151.716 9.14408C152.244 8.12008 152.964 7.33608 153.876 6.79208C154.788 6.24808 155.828 5.97607 156.996 5.97607ZM157.62 7.92008C156.276 7.92008 155.196 8.35208 154.38 9.21607C153.58 10.0641 153.18 11.2401 153.18 12.7441C153.18 14.2481 153.58 15.4321 154.38 16.2961C155.196 17.1441 156.276 17.5681 157.62 17.5681C158.484 17.5681 159.252 17.3681 159.924 16.9681C160.612 16.5681 161.148 16.0081 161.532 15.2881C161.916 14.5521 162.108 13.7041 162.108 12.7441C162.108 11.7841 161.916 10.9361 161.532 10.2001C161.148 9.46408 160.612 8.90408 159.924 8.52008C159.252 8.12008 158.484 7.92008 157.62 7.92008Z" fill="white"/>
<path d="M142.521 5.97607C144.201 5.97607 145.594 6.42408 146.698 7.32008C147.802 8.21608 148.482 9.41607 148.738 10.9201H146.434C146.274 9.97607 145.834 9.24008 145.114 8.71208C144.41 8.16808 143.53 7.89608 142.474 7.89608C141.706 7.89608 141.002 8.07208 140.362 8.42408C139.738 8.77608 139.234 9.32008 138.85 10.0561C138.466 10.7761 138.273 11.6721 138.273 12.7441C138.273 13.8161 138.466 14.7201 138.85 15.4561C139.234 16.1761 139.738 16.7121 140.362 17.0641C141.002 17.4161 141.706 17.5921 142.474 17.5921C143.53 17.5921 144.41 17.3201 145.114 16.7761C145.834 16.2321 146.274 15.4881 146.434 14.5441H148.738C148.482 16.0641 147.802 17.2721 146.698 18.1681C145.594 19.0481 144.201 19.4881 142.521 19.4881C141.257 19.4881 140.137 19.2161 139.161 18.6721C138.185 18.1281 137.417 17.3521 136.857 16.3441C136.313 15.3201 136.042 14.1201 136.042 12.7441C136.042 11.3681 136.313 10.1681 136.857 9.14408C137.417 8.12008 138.185 7.33608 139.161 6.79208C140.137 6.24808 141.257 5.97607 142.521 5.97607Z" fill="white"/>
<path d="M130.711 15.4079H123.271L121.855 19.3199H119.503L125.767 2.71191H128.239L134.479 19.3199H132.127L130.711 15.4079ZM130.087 13.7039L126.991 5.15991L123.895 13.7039H130.087Z" fill="white"/>
<path d="M113.519 12.264C113.519 12.6 113.479 12.968 113.399 13.368H104.111C104.159 14.376 104.415 15.104 104.879 15.552C105.343 15.984 105.935 16.2 106.655 16.2C107.263 16.2 107.767 16.048 108.167 15.744C108.567 15.44 108.831 15.048 108.959 14.568H113.303C113.127 15.512 112.743 16.36 112.151 17.112C111.559 17.848 110.807 18.432 109.895 18.864C108.983 19.28 107.967 19.488 106.847 19.488C105.535 19.488 104.367 19.216 103.343 18.672C102.335 18.112 101.543 17.312 100.967 16.272C100.391 15.232 100.103 14.016 100.103 12.624C100.103 11.216 100.383 10 100.943 8.97601C101.519 7.93601 102.319 7.14401 103.343 6.60001C104.367 6.04001 105.535 5.76001 106.847 5.76001C108.175 5.76001 109.343 6.03201 110.351 6.57601C111.359 7.12001 112.135 7.88801 112.679 8.88001C113.239 9.85601 113.519 10.984 113.519 12.264ZM109.367 11.64C109.383 10.76 109.143 10.104 108.647 9.67201C108.167 9.22401 107.567 9.00001 106.847 9.00001C106.095 9.00001 105.471 9.22401 104.975 9.67201C104.479 10.12 104.199 10.776 104.135 11.64H109.367Z" fill="white"/>
<path d="M97.9653 1.56006V19.3201H93.8613V1.56006H97.9653Z" fill="white"/>
<path d="M86.5398 2.16C86.5398 1.536 86.7638 1.024 87.2118 0.624001C87.6598 0.208 88.2518 0 88.9878 0C89.7238 0 90.3158 0.208 90.7638 0.624001C91.2118 1.024 91.4358 1.536 91.4358 2.16C91.4358 2.768 91.2118 3.28 90.7638 3.696C90.3158 4.096 89.7238 4.296 88.9878 4.296C88.2518 4.296 87.6598 4.096 87.2118 3.696C86.7638 3.28 86.5398 2.768 86.5398 2.16ZM91.0278 5.928V19.32H86.9238V5.928H91.0278Z" fill="white"/>
<path d="M79.0102 5.76006C80.1142 5.76006 81.0982 6.04006 81.9622 6.60006C82.8422 7.14406 83.5302 7.93606 84.0262 8.97606C84.5382 10.0001 84.7942 11.2161 84.7942 12.6241C84.7942 14.0161 84.5382 15.2321 84.0262 16.2721C83.5302 17.3121 82.8422 18.1121 81.9622 18.6721C81.0982 19.2161 80.1142 19.4881 79.0102 19.4881C77.9862 19.4881 77.1062 19.2561 76.3702 18.7921C75.6342 18.3281 75.0982 17.6961 74.7622 16.8961V19.3201H70.6582V1.56006H74.7622V8.35206C75.0982 7.55206 75.6342 6.92006 76.3702 6.45606C77.1062 5.99206 77.9862 5.76006 79.0102 5.76006ZM77.6902 9.36006C76.8262 9.36006 76.1142 9.65606 75.5542 10.2481C75.0102 10.8241 74.7382 11.6161 74.7382 12.6241C74.7382 13.6161 75.0102 14.4081 75.5542 15.0001C76.1142 15.5921 76.8262 15.8881 77.6902 15.8881C78.5702 15.8881 79.2742 15.6001 79.8022 15.0241C80.3462 14.4481 80.6182 13.6481 80.6182 12.6241C80.6182 11.6001 80.3462 10.8001 79.8022 10.2241C79.2742 9.64806 78.5702 9.36006 77.6902 9.36006Z" fill="white"/>
<path d="M61.5941 5.76001C62.9221 5.76001 64.1061 6.04001 65.1461 6.60001C66.2021 7.14401 67.0261 7.93601 67.6181 8.97601C68.2261 10.016 68.5301 11.232 68.5301 12.624C68.5301 14.016 68.2261 15.232 67.6181 16.272C67.0261 17.312 66.2021 18.112 65.1461 18.672C64.1061 19.216 62.9221 19.488 61.5941 19.488C60.2661 19.488 59.0741 19.216 58.0181 18.672C56.9621 18.112 56.1301 17.312 55.5221 16.272C54.9301 15.232 54.6341 14.016 54.6341 12.624C54.6341 11.232 54.9301 10.016 55.5221 8.97601C56.1301 7.93601 56.9621 7.14401 58.0181 6.60001C59.0741 6.04001 60.2661 5.76001 61.5941 5.76001ZM61.5941 9.31201C60.8101 9.31201 60.1461 9.60001 59.6021 10.176C59.0741 10.736 58.8101 11.552 58.8101 12.624C58.8101 13.696 59.0741 14.512 59.6021 15.072C60.1461 15.632 60.8101 15.912 61.5941 15.912C62.3781 15.912 63.0341 15.632 63.5621 15.072C64.0901 14.512 64.3541 13.696 64.3541 12.624C64.3541 11.552 64.0901 10.736 63.5621 10.176C63.0341 9.60001 62.3781 9.31201 61.5941 9.31201Z" fill="white"/>
<path d="M52.496 2.47192V19.3199H48.392V8.78392L44.744 19.3199H41.192L37.52 8.75992V19.3199H33.416V2.47192H38.432L43.016 14.2079L47.504 2.47192H52.496Z" fill="white"/>
</svg>
